<?xml version="1.0" encoding="UTF-8" standalone="no"?> <svg width="64" height="64" viewBox="0 0 64 64" fill="none" xmlns="http://www.w3.org/2000/svg">
<path d="M58.92 42.1498C58.7578 41.9369 58.5413 41.7717 58.2932 41.6714C58.0451 41.5711 57.7745 41.5395 57.51 41.5798C53.7339 42.1562 49.8778 41.9097 46.2059 40.8573C42.5339 39.8048 39.1327 37.9712 36.2353 35.4821C33.3378 32.993 31.0124 29.9071 29.4184 26.4358C27.8245 22.9645 26.9995 19.1896 27 15.3698C27.0031 11.7664 27.7486 8.20234 29.19 4.89982C29.2938 4.65364 29.3309 4.38443 29.2976 4.11933C29.2642 3.85423 29.1616 3.60261 29 3.38982C28.8381 3.17709 28.6213 3.01254 28.3728 2.91387C28.1244 2.81519 27.8537 2.78613 27.59 2.82982C22.5107 3.59938 17.7204 5.68201 13.6932 8.87161C9.6661 12.0612 6.5417 16.2472 4.62929 21.0152C2.71687 25.7832 2.08275 30.968 2.78969 36.0564C3.49662 41.1448 5.5201 45.9604 8.65985 50.0265C11.7996 54.0927 15.9468 57.2684 20.6909 59.2394C25.435 61.2104 30.6116 61.9083 35.7083 61.2641C40.805 60.6199 45.6451 58.6559 49.7496 55.5665C53.8541 52.477 57.0807 48.3693 59.11 43.6498C59.214 43.4054 59.2512 43.1377 59.2178 42.8741C59.1844 42.6106 59.0816 42.3606 58.92 42.1498Z" fill="#F8B64C"/>
<path d="M61.3299 12C61.124 11.368 60.7222 10.8181 60.1829 10.4298C59.6435 10.0414 58.9945 9.83485 58.3299 9.83996H53.2099C53.1837 9.84642 53.1562 9.84653 53.1299 9.84027C53.1036 9.83401 53.0792 9.82156 53.0586 9.80396C53.0381 9.78636 53.0221 9.76411 53.0119 9.73907C53.0016 9.71402 52.9976 9.6869 52.9999 9.65996L51.5099 4.71996C51.3077 4.07331 50.9042 3.50818 50.3582 3.10692C49.8123 2.70566 49.1525 2.48926 48.4749 2.48926C47.7974 2.48926 47.1376 2.70566 46.5916 3.10692C46.0457 3.50818 45.6422 4.07331 45.4399 4.71996L43.9099 9.71996C43.8989 9.75596 43.8762 9.78728 43.8454 9.809C43.8147 9.83072 43.7776 9.84161 43.7399 9.83996H38.6299C37.9637 9.83573 37.3132 10.0415 36.7706 10.428C36.228 10.8146 35.8209 11.3622 35.6073 11.9932C35.3936 12.6242 35.3842 13.3065 35.5803 13.9432C35.7765 14.5799 36.1682 15.1386 36.6999 15.54L40.9999 18.76C41.0259 18.7946 41.0399 18.8367 41.0399 18.88C41.0399 18.9232 41.0259 18.9653 40.9999 19L39.3999 24.17C39.2561 24.6432 39.2239 25.1433 39.3059 25.6311C39.3879 26.1189 39.5819 26.581 39.8726 26.9812C40.1633 27.3814 40.5428 27.7087 40.9813 27.9376C41.4198 28.1664 41.9054 28.2904 42.3999 28.3C43.095 28.2964 43.7696 28.0645 44.3199 27.64L48.3199 24.64C48.3499 24.6164 48.3869 24.6037 48.4249 24.6037C48.463 24.6037 48.5 24.6164 48.5299 24.64L52.5299 27.64C53.0648 28.0634 53.7218 28.3035 54.4036 28.325C55.0855 28.3464 55.7562 28.148 56.3167 27.7591C56.8771 27.3701 57.2977 26.8112 57.5161 26.1649C57.7346 25.5186 57.7394 24.8192 57.5299 24.17L55.9099 19C55.9016 18.9643 55.9028 18.9271 55.9133 18.892C55.9238 18.8569 55.9434 18.8252 55.9699 18.8L60.2499 15.53C60.7821 15.133 61.1738 14.5767 61.368 13.9418C61.5622 13.307 61.5489 12.6267 61.3299 12V12Z" fill="#FFD164"/>
</svg>
